<svg width="27" height="27" fill="none" xmlns="http://www.w3.org/2000/svg"><path d="M9.09 13.569a4.42 4.42 0 118.838 0 4.42 4.42 0 11-8.838 0zm-2.39 0a6.809 6.809 0 1013.616 0 6.809 6.809 0 10-13.616 0zm12.294-7.08a1.591 1.591 0 101.592-1.591 1.592 1.592 0 00-1.592 1.59zM8.152 24.363c-1.293-.059-1.995-.274-2.462-.456a4.122 4.122 0 01-1.525-.992 4.092 4.092 0 01-.992-1.524c-.182-.467-.397-1.17-.456-2.463-.064-1.398-.077-1.818-.077-5.36 0-3.541.014-3.96.077-5.359.059-1.293.276-1.994.456-2.463.241-.619.528-1.06.992-1.525a4.086 4.086 0 011.525-.992c.466-.182 1.17-.397 2.462-.456 1.397-.064 1.817-.077 5.356-.077 3.539 0 3.96.014 5.358.077 1.292.059 1.994.276 2.462.456a4.11 4.11 0 011.525.992c.464.464.75.906.992 1.525.182.467.397 1.17.456 2.463.064 1.4.077 1.818.077 5.36 0 3.541-.013 3.96-.077 5.359-.06 1.293-.276 1.996-.456 2.463a4.11 4.11 0 01-.992 1.524 4.127 4.127 0 01-1.525.992c-.467.182-1.17.398-2.462.456-1.398.065-1.817.077-5.358.077-3.54 0-3.96-.012-5.356-.077zM8.042.387c-1.411.064-2.376.288-3.218.616a6.503 6.503 0 00-2.349 1.53A6.48 6.48 0 00.946 4.882C.618 5.725.395 6.689.33 8.1.265 9.515.25 9.967.25 13.568c0 3.602.015 4.054.08 5.468.065 1.412.288 2.376.616 3.22a6.483 6.483 0 001.53 2.348 6.519 6.519 0 002.348 1.53c.844.328 1.807.552 3.218.616 1.414.064 1.866.08 5.466.08s4.052-.015 5.466-.08c1.412-.064 2.375-.288 3.218-.616a6.52 6.52 0 002.349-1.53 6.496 6.496 0 001.529-2.349c.328-.843.552-1.807.616-3.219.064-1.415.079-1.866.079-5.468 0-3.601-.015-4.053-.08-5.467-.064-1.412-.287-2.377-.615-3.22a6.522 6.522 0 00-1.53-2.348 6.488 6.488 0 00-2.347-1.53C21.35.675 20.385.45 18.975.387 17.561.323 17.11.307 13.51.307s-4.053.015-5.467.08z" fill="#100F15"/><path d="M9.09 13.569a4.42 4.42 0 118.838 0 4.42 4.42 0 11-8.838 0zm-2.39 0a6.809 6.809 0 1013.616 0 6.809 6.809 0 10-13.616 0zm12.294-7.08a1.591 1.591 0 101.592-1.591 1.592 1.592 0 00-1.592 1.59zM8.152 24.363c-1.293-.059-1.995-.274-2.462-.456a4.122 4.122 0 01-1.525-.992 4.092 4.092 0 01-.992-1.524c-.182-.467-.397-1.17-.456-2.463-.064-1.398-.077-1.818-.077-5.36 0-3.541.014-3.96.077-5.359.059-1.293.276-1.994.456-2.463.241-.619.528-1.06.992-1.525a4.086 4.086 0 011.525-.992c.466-.182 1.17-.397 2.462-.456 1.397-.064 1.817-.077 5.356-.077 3.539 0 3.96.014 5.358.077 1.292.059 1.994.276 2.462.456a4.11 4.11 0 011.525.992c.464.464.75.906.992 1.525.182.467.397 1.17.456 2.463.064 1.4.077 1.818.077 5.36 0 3.541-.013 3.96-.077 5.359-.06 1.293-.276 1.996-.456 2.463a4.11 4.11 0 01-.992 1.524 4.127 4.127 0 01-1.525.992c-.467.182-1.17.398-2.462.456-1.398.065-1.817.077-5.358.077-3.54 0-3.96-.012-5.356-.077zM8.042.387c-1.411.064-2.376.288-3.218.616a6.503 6.503 0 00-2.349 1.53A6.48 6.48 0 00.946 4.882C.618 5.725.395 6.689.33 8.1.265 9.515.25 9.967.25 13.568c0 3.602.015 4.054.08 5.468.065 1.412.288 2.376.616 3.22a6.483 6.483 0 001.53 2.348 6.519 6.519 0 002.348 1.53c.844.328 1.807.552 3.218.616 1.414.064 1.866.08 5.466.08s4.052-.015 5.466-.08c1.412-.064 2.375-.288 3.218-.616a6.52 6.52 0 002.349-1.53 6.496 6.496 0 001.529-2.349c.328-.843.552-1.807.616-3.219.064-1.415.079-1.866.079-5.468 0-3.601-.015-4.053-.08-5.467-.064-1.412-.287-2.377-.615-3.22a6.522 6.522 0 00-1.53-2.348 6.488 6.488 0 00-2.347-1.53C21.35.675 20.385.45 18.975.387 17.561.323 17.11.307 13.51.307s-4.053.015-5.467.08z" fill="#100F15"/></svg>