<svg width="71" height="71" fill="none" xmlns="http://www.w3.org/2000/svg"><path fill="#100F15" d="M14.651 16.375h43.953v43.953H14.651z"/><path d="M35.334 0C15.83 0 0 15.83 0 35.334 0 54.84 15.83 70.67 35.334 70.67c19.505 0 35.335-15.83 35.335-35.334C70.67 15.83 54.84 0 35.335 0zm-7.066 47.702V22.968c0-1.45 1.66-2.297 2.826-1.414l16.502 12.367c.954.707.954 2.12 0 2.827L31.094 49.115c-1.166.883-2.826.035-2.826-1.413z" fill="url(#paint0_linear_308_5)"/><defs><linearGradient id="paint0_linear_308_5" x1="-4.008" y1="35.334" x2="80.689" y2="35.334" gradientUnits="userSpaceOnUse"><stop stop-color="#D6B54E"/><stop offset=".5" stop-color="#F0EE8C"/><stop offset="1" stop-color="#D6B54E"/></linearGradient></defs></svg>