<svg width="33" height="19" fill="none" xmlns="http://www.w3.org/2000/svg"><path fill-rule="evenodd" clip-rule="evenodd" d="M31.964 1.869c.224-.7 0-1.216-1.066-1.216h-3.524c-.897 0-1.31.445-1.534.935 0 0-1.793 4.1-4.332 6.761-.822.771-1.195 1.016-1.643 1.016-.224 0-.548-.245-.548-.945V1.869c0-.841-.26-1.216-1.008-1.216H12.77c-.56 0-.897.39-.897.76 0 .797 1.27.981 1.4 3.223v4.87c0 1.067-.205 1.26-.653 1.26-1.195 0-4.102-4.116-5.826-8.827C6.457 1.023 6.118.653 5.217.653H1.692c-1.007 0-1.209.445-1.209.935 0 .876 1.195 5.22 5.565 10.965 2.912 3.924 7.016 6.05 10.75 6.05 2.241 0 2.519-.472 2.519-1.286v-2.965c0-.945.212-1.133.921-1.133.523 0 1.42.245 3.51 2.137 2.39 2.242 2.785 3.247 4.129 3.247h3.525c1.007 0 1.51-.472 1.22-1.404-.318-.93-1.459-2.277-2.973-3.875-.822-.91-2.054-1.892-2.427-2.382-.523-.63-.374-.911 0-1.472 0 0 4.294-5.675 4.742-7.601z" fill="#100F15"/></svg>