<svg width="23" height="26" fill="none" xmlns="http://www.w3.org/2000/svg"><path d="M18.717 15.43l-3.82 3.545h-3.821l-3.343 3.102v-3.102H3.435V5.683h15.282v9.748z" fill="#9146FF"/><path d="M5.523 1.8L4.37 2.954 2.354 15.915l6.05 3.168.863 1.152 5.761-2.016 6.337-4.897.288-4.608-.288-6.625-.864-.288H5.523z" fill="#fff"/><path d="M4.826.892L.05 5.322v15.952h5.73v4.43l4.776-4.43h3.821l8.597-7.976V.892H4.826zm16.237 11.52l-3.82 3.545h-3.821l-3.343 3.101v-3.101H5.78V2.664h15.282v9.748z" fill="#100F15"/><path d="M18.198 5.766h-1.91v5.317h1.91V5.766zm-5.252 0h-1.91v5.317h1.91V5.766z" fill="#100F15"/></svg>