<svg width="21" height="18" fill="none" xmlns="http://www.w3.org/2000/svg"><path d="M1.52 7.703s9.154-3.856 12.33-5.214c1.216-.543 5.344-2.28 5.344-2.28s1.905-.761 1.747 1.085c-.053.76-.477 3.422-.9 6.3-.635 4.074-1.323 8.527-1.323 8.527s-.106 1.25-1.006 1.466c-.9.218-2.38-.76-2.646-.977-.211-.163-3.969-2.607-5.344-3.802-.37-.326-.794-.977.053-1.738a204.509 204.509 0 005.556-5.43c.635-.652 1.27-2.173-1.376-.327a451.376 451.376 0 01-7.461 5.16s-.847.543-2.435.054C2.472 10.04.62 9.387.62 9.387s-1.27-.815.9-1.684z" fill="#18171D"/></svg>