<svg width="25" height="27" fill="none" xmlns="http://www.w3.org/2000/svg"><path fill-rule="evenodd" clip-rule="evenodd" d="M18.224 9.898a10.418 10.418 0 006.079 1.93v-4.32a5.843 5.843 0 01-1.273-.137v3.441a10.41 10.41 0 01-6.086-1.95v8.884a8.083 8.083 0 01-4.267 7.096 8.065 8.065 0 01-8.265-.392 8.069 8.069 0 0013.812-5.645V9.898zM19.8 5.492a6.044 6.044 0 01-1.576-3.557v-.562h-1.208A6.11 6.11 0 0019.8 5.492zM7.21 21.03a3.688 3.688 0 012.957-5.926c.38 0 .76.058 1.122.173v-4.464a8.5 8.5 0 00-1.28-.072v3.47a3.687 3.687 0 00-4.53 2.128 3.697 3.697 0 001.753 4.69H7.21z" fill="#fff"/><path fill-rule="evenodd" clip-rule="evenodd" d="M16.943 8.832a10.41 10.41 0 006.086 1.952V7.342a6.07 6.07 0 01-3.23-1.85 6.104 6.104 0 01-2.784-4.119h-3.18v17.432a3.695 3.695 0 01-2.516 3.487A3.687 3.687 0 017.21 21.03a3.692 3.692 0 01-1.928-4.15 3.694 3.694 0 013.583-2.842c.38.001.759.06 1.122.173v-3.47a8.06 8.06 0 00-7.276 5.026 8.078 8.078 0 001.7 8.683 8.066 8.066 0 0011.4-2.557 8.084 8.084 0 001.154-4.147l-.022-8.914z" fill="#18171D"/><path fill-rule="evenodd" clip-rule="evenodd" d="M23.03 7.341v-.929a6.031 6.031 0 01-3.23-.921 6.02 6.02 0 003.23 1.85zm-6.014-5.969c0-.165-.05-.338-.072-.504V.307h-4.389v17.439a3.688 3.688 0 01-5.345 3.283 3.69 3.69 0 006.626-2.225V1.372h3.18zm-7.029 9.36v-.986a8.059 8.059 0 00-8.625 5.134 8.078 8.078 0 003.05 9.569 8.074 8.074 0 015.597-13.68l-.022-.037z" fill="#18171D"/></svg>