<?xml version="1.0" encoding="utf-8"?><svg viewBox="0 0 33 27" xmlns="http://www.w3.org/2000/svg" xmlns:xlink="http://www.w3.org/1999/xlink"><style>:root>svg{display:none}:root>svg:target{display:block}</style><svg fill="none" viewBox="0 0 15 25" id="icon-arrow-next" xmlns="http://www.w3.org/2000/svg"><path d="M1.61 1L13 12.39 1.61 23.782" stroke="#18171D" stroke-width="2.579" stroke-linejoin="round"/></svg><svg fill="none" viewBox="0 0 15 25" id="icon-arrow-prev" xmlns="http://www.w3.org/2000/svg"><path d="M13.39 1L2 12.39l11.39 11.391" stroke="#18171D" stroke-width="2.579" stroke-linejoin="round"/></svg><svg fill="none" viewBox="0 0 27 27" id="icon-instagram" xmlns="http://www.w3.org/2000/svg"><path d="M9.09 13.569a4.42 4.42 0 118.838 0 4.42 4.42 0 11-8.838 0zm-2.39 0a6.809 6.809 0 1013.616 0 6.809 6.809 0 10-13.616 0zm12.294-7.08a1.591 1.591 0 101.592-1.591 1.592 1.592 0 00-1.592 1.59zM8.152 24.363c-1.293-.059-1.995-.274-2.462-.456a4.122 4.122 0 01-1.525-.992 4.092 4.092 0 01-.992-1.524c-.182-.467-.397-1.17-.456-2.463-.064-1.398-.077-1.818-.077-5.36 0-3.541.014-3.96.077-5.359.059-1.293.276-1.994.456-2.463.241-.619.528-1.06.992-1.525a4.086 4.086 0 011.525-.992c.466-.182 1.17-.397 2.462-.456 1.397-.064 1.817-.077 5.356-.077 3.539 0 3.96.014 5.358.077 1.292.059 1.994.276 2.462.456.619.24 1.06.528 1.525.992.464.464.75.906.992 1.525.182.467.397 1.17.456 2.463.064 1.4.077 1.818.077 5.36 0 3.541-.013 3.96-.077 5.359-.06 1.293-.276 1.996-.456 2.463a4.11 4.11 0 01-.992 1.524c-.464.463-.906.751-1.525.992-.467.182-1.17.398-2.462.456-1.398.065-1.817.077-5.358.077-3.54 0-3.96-.012-5.356-.077zM8.042.387c-1.411.064-2.376.288-3.218.616a6.503 6.503 0 00-2.349 1.53A6.48 6.48 0 00.946 4.882C.618 5.725.395 6.689.33 8.1.265 9.515.25 9.967.25 13.568c0 3.602.015 4.054.08 5.468.065 1.412.288 2.376.616 3.22a6.483 6.483 0 001.53 2.348 6.519 6.519 0 002.348 1.53c.844.328 1.807.552 3.218.616 1.414.064 1.866.08 5.466.08s4.052-.015 5.466-.08c1.412-.064 2.375-.288 3.218-.616a6.52 6.52 0 002.349-1.53 6.496 6.496 0 001.529-2.349c.328-.843.552-1.807.616-3.219.064-1.415.079-1.866.079-5.468 0-3.601-.015-4.053-.08-5.467-.064-1.412-.287-2.377-.615-3.22a6.522 6.522 0 00-1.53-2.348 6.488 6.488 0 00-2.347-1.53C21.35.675 20.385.45 18.975.387 17.561.323 17.11.307 13.51.307s-4.053.015-5.467.08z" fill="#100F15"/><path d="M9.09 13.569a4.42 4.42 0 118.838 0 4.42 4.42 0 11-8.838 0zm-2.39 0a6.809 6.809 0 1013.616 0 6.809 6.809 0 10-13.616 0zm12.294-7.08a1.591 1.591 0 101.592-1.591 1.592 1.592 0 00-1.592 1.59zM8.152 24.363c-1.293-.059-1.995-.274-2.462-.456a4.122 4.122 0 01-1.525-.992 4.092 4.092 0 01-.992-1.524c-.182-.467-.397-1.17-.456-2.463-.064-1.398-.077-1.818-.077-5.36 0-3.541.014-3.96.077-5.359.059-1.293.276-1.994.456-2.463.241-.619.528-1.06.992-1.525a4.086 4.086 0 011.525-.992c.466-.182 1.17-.397 2.462-.456 1.397-.064 1.817-.077 5.356-.077 3.539 0 3.96.014 5.358.077 1.292.059 1.994.276 2.462.456.619.24 1.06.528 1.525.992.464.464.75.906.992 1.525.182.467.397 1.17.456 2.463.064 1.4.077 1.818.077 5.36 0 3.541-.013 3.96-.077 5.359-.06 1.293-.276 1.996-.456 2.463a4.11 4.11 0 01-.992 1.524c-.464.463-.906.751-1.525.992-.467.182-1.17.398-2.462.456-1.398.065-1.817.077-5.358.077-3.54 0-3.96-.012-5.356-.077zM8.042.387c-1.411.064-2.376.288-3.218.616a6.503 6.503 0 00-2.349 1.53A6.48 6.48 0 00.946 4.882C.618 5.725.395 6.689.33 8.1.265 9.515.25 9.967.25 13.568c0 3.602.015 4.054.08 5.468.065 1.412.288 2.376.616 3.22a6.483 6.483 0 001.53 2.348 6.519 6.519 0 002.348 1.53c.844.328 1.807.552 3.218.616 1.414.064 1.866.08 5.466.08s4.052-.015 5.466-.08c1.412-.064 2.375-.288 3.218-.616a6.52 6.52 0 002.349-1.53 6.496 6.496 0 001.529-2.349c.328-.843.552-1.807.616-3.219.064-1.415.079-1.866.079-5.468 0-3.601-.015-4.053-.08-5.467-.064-1.412-.287-2.377-.615-3.22a6.522 6.522 0 00-1.53-2.348 6.488 6.488 0 00-2.347-1.53C21.35.675 20.385.45 18.975.387 17.561.323 17.11.307 13.51.307s-4.053.015-5.467.08z" fill="#100F15"/></svg><svg fill="none" viewBox="0 0 21 18" id="icon-telegram" xmlns="http://www.w3.org/2000/svg"><path d="M1.52 7.703s9.154-3.856 12.33-5.214c1.216-.543 5.344-2.28 5.344-2.28s1.905-.761 1.747 1.085c-.053.76-.477 3.422-.9 6.3-.635 4.074-1.323 8.527-1.323 8.527s-.106 1.25-1.006 1.466c-.9.218-2.38-.76-2.646-.977-.211-.163-3.969-2.607-5.344-3.802-.37-.326-.794-.977.053-1.738a204.509 204.509 0 005.556-5.43c.635-.652 1.27-2.173-1.376-.327a451.376 451.376 0 01-7.461 5.16s-.847.543-2.435.054C2.472 10.04.62 9.387.62 9.387s-1.27-.815.9-1.684z" fill="#18171D"/></svg><svg fill="none" viewBox="0 0 25 27" id="icon-tiktok" xmlns="http://www.w3.org/2000/svg"><path fill-rule="evenodd" clip-rule="evenodd" d="M18.224 9.898a10.418 10.418 0 006.079 1.93v-4.32a5.843 5.843 0 01-1.273-.137v3.441a10.41 10.41 0 01-6.086-1.95v8.884a8.083 8.083 0 01-4.267 7.096 8.065 8.065 0 01-8.265-.392 8.069 8.069 0 0013.812-5.645V9.898zM19.8 5.492a6.044 6.044 0 01-1.576-3.557v-.562h-1.208A6.11 6.11 0 0019.8 5.492zM7.21 21.03a3.688 3.688 0 012.957-5.926c.38 0 .76.058 1.122.173v-4.464a8.5 8.5 0 00-1.28-.072v3.47a3.687 3.687 0 00-4.53 2.128 3.697 3.697 0 001.753 4.69H7.21z" fill="#fff"/><path fill-rule="evenodd" clip-rule="evenodd" d="M16.943 8.832a10.41 10.41 0 006.086 1.952V7.342a6.07 6.07 0 01-3.23-1.85 6.104 6.104 0 01-2.784-4.119h-3.18v17.432a3.695 3.695 0 01-2.516 3.487A3.687 3.687 0 017.21 21.03a3.692 3.692 0 01-1.928-4.15 3.694 3.694 0 013.583-2.842c.38.001.759.06 1.122.173v-3.47a8.06 8.06 0 00-7.276 5.026 8.078 8.078 0 001.7 8.683 8.066 8.066 0 0011.4-2.557 8.084 8.084 0 001.154-4.147l-.022-8.914z" fill="#18171D"/><path fill-rule="evenodd" clip-rule="evenodd" d="M23.03 7.341v-.929a6.031 6.031 0 01-3.23-.921 6.02 6.02 0 003.23 1.85zm-6.014-5.969c0-.165-.05-.338-.072-.504V.307h-4.389v17.439a3.688 3.688 0 01-5.345 3.283 3.69 3.69 0 006.626-2.225V1.372h3.18zm-7.029 9.36v-.986a8.059 8.059 0 00-8.625 5.134 8.078 8.078 0 003.05 9.569 8.074 8.074 0 015.597-13.68l-.022-.037z" fill="#18171D"/></svg><svg fill="none" viewBox="0 0 23 26" id="icon-twitch" xmlns="http://www.w3.org/2000/svg"><path d="M18.717 15.43l-3.82 3.545h-3.821l-3.343 3.102v-3.102H3.435V5.683h15.282v9.748z" fill="#9146FF"/><path d="M5.523 1.8L4.37 2.954 2.354 15.915l6.05 3.168.863 1.152 5.761-2.016 6.337-4.897.288-4.608-.288-6.625-.864-.288H5.523z" fill="#fff"/><path d="M4.826.892L.05 5.322v15.952h5.73v4.43l4.776-4.43h3.821l8.597-7.976V.892H4.826zm16.237 11.52l-3.82 3.545h-3.821l-3.343 3.101v-3.101H5.78V2.664h15.282v9.748z" fill="#100F15"/><path d="M18.198 5.766h-1.91v5.317h1.91V5.766zM12.946 5.766h-1.91v5.317h1.91V5.766z" fill="#100F15"/></svg><svg fill="none" viewBox="0 0 33 19" id="icon-vk" xmlns="http://www.w3.org/2000/svg"><path fill-rule="evenodd" clip-rule="evenodd" d="M31.964 1.869c.224-.7 0-1.216-1.066-1.216h-3.524c-.897 0-1.31.445-1.534.935 0 0-1.793 4.1-4.332 6.761-.822.771-1.195 1.016-1.643 1.016-.224 0-.548-.245-.548-.945V1.869c0-.841-.26-1.216-1.008-1.216H12.77c-.56 0-.897.39-.897.76 0 .797 1.27.981 1.4 3.223v4.87c0 1.067-.205 1.26-.653 1.26-1.195 0-4.102-4.116-5.826-8.827C6.457 1.023 6.118.653 5.217.653H1.692c-1.007 0-1.209.445-1.209.935 0 .876 1.195 5.22 5.565 10.965 2.912 3.924 7.016 6.05 10.75 6.05 2.241 0 2.519-.472 2.519-1.286v-2.965c0-.945.212-1.133.921-1.133.523 0 1.42.245 3.51 2.137 2.39 2.242 2.785 3.247 4.129 3.247h3.525c1.007 0 1.51-.472 1.22-1.404-.318-.93-1.459-2.277-2.973-3.875-.822-.91-2.054-1.892-2.427-2.382-.523-.63-.374-.911 0-1.472 0 0 4.294-5.675 4.742-7.601z" fill="#100F15"/></svg><svg fill="none" viewBox="0 0 23 23" id="icon-whatsapp" xmlns="http://www.w3.org/2000/svg"><path d="M.25 22.917l1.614-6.003A11.1 11.1 0 014.862 2.662a11.148 11.148 0 0114.557.941 11.103 11.103 0 011.131 14.52A11.151 11.151 0 016.313 21.3L.25 22.917zm6.356-3.864l.375.222a9.012 9.012 0 0010.9-1.324 8.979 8.979 0 001.505-10.859 8.995 8.995 0 00-4.345-3.835 9.014 9.014 0 00-10.61 2.819 8.975 8.975 0 00-1.861 5.483 8.872 8.872 0 001.315 4.658l.236.387-.903 3.35 3.388-.901z" fill="#18171D"/><path fill-rule="evenodd" clip-rule="evenodd" d="M15.707 13.1a1.856 1.856 0 00-1.589-.361c-.413.17-.68.818-.947 1.142a.394.394 0 01-.508.114 7.198 7.198 0 01-3.598-3.077.43.43 0 01.058-.597c.297-.294.516-.659.635-1.06a2.306 2.306 0 00-.292-1.269 2.97 2.97 0 00-.922-1.39 1.273 1.273 0 00-1.366.21 2.805 2.805 0 00-.973 2.221c.001.235.031.47.09.698.147.548.374 1.072.673 1.555a12 12 0 00.705 1.072 10.83 10.83 0 003.057 2.83 9.217 9.217 0 001.907.907c.694.314 1.46.435 2.218.35a2.665 2.665 0 002.009-1.492c.11-.238.143-.504.095-.761-.114-.527-.82-.838-1.252-1.092z" fill="#18171D"/></svg><svg fill="none" viewBox="0 0 31 23" id="icon-youtube" xmlns="http://www.w3.org/2000/svg"><path d="M30.242 4.21a3.794 3.794 0 00-2.672-2.678C25.215.9 15.766.9 15.766.9s-9.444 0-11.803.632A3.794 3.794 0 001.29 4.21C.66 6.571.66 11.5.66 11.5s0 4.93.63 7.29a3.794 3.794 0 002.672 2.68c2.36.63 11.803.63 11.803.63s9.449 0 11.804-.63a3.794 3.794 0 002.672-2.68c.63-2.36.63-7.29.63-7.29s0-4.929-.63-7.29z" fill="#18171D"/><path d="M12.748 16.044l7.848-4.544-7.848-4.543v9.087z" fill="#fff"/></svg></svg>